<?xml version="1.0" encoding="utf-8"?>
<svg xmlns="http://www.w3.org/2000/svg" version="1.2" viewBox="0 0 1406 200">
	<title>A short musical phrase of eight notes.</title>
	<polyline fill="none" points="-3.3811827354613116e-11,40.719418350000005 1405.9900735464453,40.719418350000005" stroke="#000000" stroke-linejoin="bevel" stroke-width="3.12"/>
	<polyline fill="none" points="-3.3811827354613116e-11,68.84139986399998 1405.9900735464453,68.84139986399998" stroke="#000000" stroke-linejoin="bevel" stroke-width="3.12"/>
	<polyline fill="none" points="-3.3811827354613116e-11,96.96238931599999 1405.9900735464453,96.96238931599999" stroke="#000000" stroke-linejoin="bevel" stroke-width="3.12"/>
	<polyline fill="none" points="-3.3811827354613116e-11,125.08437082999995 1405.9900735464453,125.08437082999995" stroke="#000000" stroke-linejoin="bevel" stroke-width="3.12"/>
	<polyline fill="none" points="-3.3811827354613116e-11,153.20536028199996 1405.9900735464453,153.20536028199996" stroke="#000000" stroke-linejoin="bevel" stroke-width="3.12"/>
	<polyline fill="none" points="1403.450552286526,39.17279369200002 1403.450552286526,154.75198494" stroke="#000000" stroke-linejoin="bevel" stroke-width="5.1"/>
	<polyline fill="none" points="164.7732657480621,31.383122868000008 164.7732657480621,125.08437082999995" stroke="#000000" stroke-linejoin="bevel" stroke-width="2.83"/>
	<polyline fill="none" points="377.9690515197688,59.50510438199999 377.9690515197688,153.09325727599997" stroke="#000000" stroke-linejoin="bevel" stroke-width="2.83"/>
	<polyline fill="none" points="490.0879231447164,87.62609383399999 490.0879231447164,174.29659840200003" stroke="#000000" stroke-linejoin="bevel" stroke-width="2.83"/>
	<polyline fill="none" points="703.2837089164232,73.56559910799999 703.2837089164232,167.15375200199998" stroke="#000000" stroke-linejoin="bevel" stroke-width="2.83"/>
	<polyline fill="none" points="815.4025805413708,59.50510438199999 815.4025805413708,153.20536028199996" stroke="#000000" stroke-linejoin="bevel" stroke-width="2.83"/>
	<polyline fill="none" points="1028.6033263155384,73.56559910799999 1028.6033263155384,167.15375200199998" stroke="#000000" stroke-linejoin="bevel" stroke-width="2.83"/>
	<polyline fill="none" points="1140.7192219390095,59.50510438199999 1140.7192219390095,154.217263522" stroke="#000000" stroke-linejoin="bevel" stroke-width="2.83"/>
	<polyline fill="none" points="1215.466459022964,31.383122868000008 1215.466459022964,124.971275762" stroke="#000000" stroke-linejoin="bevel" stroke-width="2.83"/>
	<path d="m 163.36659,31.383325 c 0,4.836897 3.48686,10.236224 12.59765,10.236224 11.69781,0 23.95801,-9.561305 23.95801,-19.460069 0,-6.636667 -5.62394,-10.348705 -12.59764,-10.348705 -10.91045,0 -23.95802,9.223845 -23.95802,19.57255" style="stroke-width:1.12483"/>
	<path d="m 376.56232,59.504313 c 0,4.836898 3.48685,10.236225 12.59763,10.236225 11.69782,0 23.95802,-9.561305 23.95802,-19.46007 0,-6.636666 -5.62395,-10.348704 -12.59764,-10.348704 -10.91046,0 -23.95801,9.223845 -23.95801,19.572549" style="stroke-width:1.12483"/>
	<path d="m 488.68214,87.62629 c 0,4.8369 3.48686,10.23623 12.59765,10.23623 11.69781,0 23.95801,-9.56131 23.95801,-19.46007 0,-6.636667 -5.62394,-10.348705 -12.59764,-10.348705 -10.91046,0 -23.95802,9.223845 -23.95802,19.572545" style="stroke-width:1.12483"/>
	<path d="m 701.87786,73.5658 c 0,4.8369 3.48686,10.23622 12.59764,10.23622 11.69782,0 23.95802,-9.561301 23.95802,-19.460065 0,-6.636667 -5.62395,-10.348705 -12.59764,-10.348705 -10.91046,0 -23.95802,9.223845 -23.95802,19.57255" style="stroke-width:1.12483"/>
	<path d="m 813.9967,59.504313 c 0,4.836898 3.48685,10.236225 12.59764,10.236225 11.69782,0 23.95801,-9.561305 23.95801,-19.46007 0,-6.636666 -5.62395,-10.348704 -12.59763,-10.348704 -10.91046,0 -23.95802,9.223845 -23.95802,19.572549" style="stroke-width:1.12483"/>
	<path d="m 1027.1943,73.5658 c 0,4.8369 3.4869,10.23622 12.5976,10.23622 11.6979,0 23.9581,-9.561301 23.9581,-19.460065 0,-6.636667 -5.6239,-10.348705 -12.5977,-10.348705 -10.9104,0 -23.958,9.223845 -23.958,19.57255" style="stroke-width:1.12483"/>
	<path d="m 1139.3102,59.504313 c 0,4.836898 3.4869,10.236225 12.5977,10.236225 11.6978,0 23.9581,-9.561305 23.9581,-19.46007 0,-6.636666 -5.624,-10.348704 -12.5978,-10.348704 -10.9104,0 -23.958,9.223845 -23.958,19.572549" style="stroke-width:1.12483"/>
	<path d="m 1214.0575,31.383325 c 0,4.836897 3.4869,10.236224 12.5975,10.236224 11.6979,0 23.958,-9.561305 23.958,-19.460069 0,-6.636667 -5.6239,-10.348705 -12.5976,-10.348705 -10.9104,0 -23.9579,9.223845 -23.9579,19.57255" style="stroke-width:1.12483"/>
	<path d="m 34.92488,182.78965 c 0,7.42407 5.623946,17.21035 20.808602,17.21035 5.286512,0 9.898145,-1.34984 13.947383,-3.82453 6.073872,-4.27447 7.648574,-11.69853 7.648574,-18.78515 0,-4.38695 -0.674878,-9.44881 -1.799668,-15.86052 -0.337429,-2.24972 -1.012307,-5.6243 -1.687185,-10.01124 11.022933,-3.59955 19.233902,-15.07312 19.233902,-26.65917 0,-16.98538 -12.035251,-28.45894 -28.457178,-28.45894 C 63.49452,89.65129 62.36973,83.01462 61.469906,76.71541 73.280191,64.229465 81.491149,50.168722 81.491149,32.283462 c 0,-10.236224 -3.149403,-18.56018 -4.949061,-22.609677 C 73.842586,3.937008 70.580699,0 68.556075,0 c -0.787351,0 -4.274204,1.349829 -7.985993,5.736777 -7.198661,8.548935 -9.223284,22.947137 -9.223284,32.395952 0,6.074247 0.562394,11.586054 2.474544,24.184477 -0.112483,0.11249 -5.961385,6.074246 -8.323447,7.986505 C 35.262319,79.75253 21.089968,93.47581 21.089968,115.973 c 0,21.03487 18.334068,37.57031 39.255148,37.57031 3.261887,0 6.298818,-0.33746 8.885837,-0.7874 2.137097,10.79864 3.486843,18.67266 3.486843,24.63441 0,11.69854 -6.073862,17.88526 -17.434235,17.88526 -2.699491,0 -5.061553,-0.56243 -5.286508,-0.56243 -0.112473,-0.11248 -0.337439,-0.22497 -0.337439,-0.33745 0,-0.22498 0.224966,-0.33746 0.562394,-0.33746 5.286518,-0.89989 10.57303,-5.39932 10.57303,-12.59842 0,-6.07425 -4.611644,-12.48594 -13.047564,-12.48594 -7.873526,0 -12.822594,6.41169 -12.822594,13.83577 M 58.432976,32.620922 c 1.012316,-4.499437 6.186334,-16.310461 12.03524,-16.310461 1.687185,0 4.386687,5.399327 4.386687,13.273343 0,11.698533 -8.660881,20.472438 -16.421927,28.121484 -0.674868,-4.499437 -1.237263,-8.886395 -1.237263,-13.610802 0,-4.161978 0.337429,-7.986506 1.237263,-11.473564 m 9.898143,115.635548 c -2.24958,0.44994 -4.386677,0.67491 -6.523774,0.67491 -16.084494,0 -29.806922,-11.2486 -29.806922,-28.23397 0,-13.72329 9.673192,-25.98425 19.571341,-34.53319 1.91214,-1.68729 3.711797,-3.26209 5.398983,-4.94937 1.012317,6.07423 1.799668,11.36108 2.587018,15.973 -10.23558,3.03711 -17.209282,13.83577 -17.209282,24.40944 0,7.87402 6.186341,18.67267 15.184659,18.67267 0.899834,0 1.91215,-0.44994 1.91215,-1.46232 0,-1.01237 -1.124789,-1.5748 -2.474545,-2.47468 -4.386677,-2.69966 -6.861212,-5.6243 -6.861212,-11.13611 0,-6.86165 5.174026,-12.37345 11.69781,-13.94826 l 6.523774,37.00788 m 15.972005,-20.8099 c 0,7.9865 -3.261887,16.19797 -11.247889,19.46006 -2.362053,-13.49831 -5.398994,-31.38357 -6.186345,-36.33295 10.12311,0 17.434234,6.86164 17.434234,16.87289" style="stroke-width:1.12483"/>
	<path d="m 376.56232,153.09286 c 0,0.78741 0.67487,1.46232 1.46222,1.46232 0.5624,0 1.23727,-0.44994 1.34975,-0.89989 0,-0.11248 1.01231,-4.04949 1.12479,-4.38695 0.11248,-0.44994 1.12479,-4.72441 5.17404,-11.36108 4.38667,-7.31159 11.13541,-12.59842 16.75935,-20.47244 5.62394,-7.87402 8.88583,-15.29808 8.88583,-25.19685 0,-10.23622 -2.24958,-18.785146 -8.32343,-29.69629 -0.33744,-0.7874 -1.01231,-1.23734 -1.68719,-1.23734 -0.22495,0 -0.44991,0 -0.56239,0.11248 -0.5624,0.22498 -0.78735,0.67492 -0.78735,1.349839 0,0.33745 0.11247,0.7874 0.33744,1.34983 4.49915,10.461194 6.29881,16.422941 6.29881,24.521941 0,9.33632 -3.26188,14.17322 -5.28651,17.66029 -7.31113,12.48593 -19.12141,18.56018 -23.84553,20.13497 -0.78735,0.22497 -0.89983,0.89989 -0.89983,1.23735 v 25.42182" style="stroke-width:1.12483"/>
	<path d="m 701.87786,167.15335 c 0,0.78741 0.67488,1.46232 1.46223,1.46232 0.5624,0 1.23727,-0.44994 1.34975,-0.89989 0,-0.11248 1.01231,-4.04948 1.12479,-4.38694 0.11248,-0.44994 1.12479,-4.72441 5.17403,-11.36109 4.38667,-7.31158 11.13541,-12.59842 16.75936,-20.47244 5.62394,-7.87401 8.88583,-15.29808 8.88583,-25.19684 0,-10.23623 -2.24958,-18.78515 -8.32343,-29.6963 -0.33744,-0.7874 -1.01231,-1.23734 -1.68719,-1.23734 -0.22495,0 -0.44991,0 -0.56239,0.11248 -0.5624,0.22498 -0.78735,0.67492 -0.78735,1.34984 0,0.33745 0.11247,0.7874 0.33744,1.34983 4.49915,10.4612 6.2988,16.42294 6.2988,24.52194 0,9.33632 -3.26188,14.17322 -5.2865,17.66029 -7.31113,12.48593 -19.12142,18.56018 -23.84553,20.13498 -0.78735,0.22497 -0.89984,0.89989 -0.89984,1.23735 v 25.42181" style="stroke-width:1.12483"/>
	<path d="m 1027.1943,167.15335 c 0,0.78741 0.6749,1.46232 1.4622,1.46232 0.5624,0 1.2374,-0.44994 1.3498,-0.89989 0,-0.11248 1.0123,-4.04948 1.1248,-4.38694 0.1125,-0.44994 1.1248,-4.72441 5.1741,-11.36109 4.3866,-7.31158 11.1354,-12.59842 16.7593,-20.47244 5.624,-7.87401 8.8859,-15.29808 8.8859,-25.19684 0,-10.23623 -2.2496,-18.78515 -8.3235,-29.6963 -0.3374,-0.7874 -1.0124,-1.23734 -1.6872,-1.23734 -0.225,0 -0.4499,0 -0.5624,0.11248 -0.5623,0.22498 -0.7873,0.67492 -0.7873,1.34984 0,0.33745 0.1125,0.7874 0.3373,1.34983 4.4993,10.4612 6.299,16.42294 6.299,24.52194 0,9.33632 -3.2619,14.17322 -5.2866,17.66029 -7.3112,12.48593 -19.1214,18.56018 -23.8455,20.13498 -0.7874,0.22497 -0.8999,0.89989 -0.8999,1.23735 v 25.42181" style="stroke-width:1.12483"/>
	<path d="m 1139.3102,154.33021 c 0,0.89989 0.7874,1.79978 1.6872,1.79978 0.8999,0 1.4622,-0.89989 1.6872,-1.79978 1.6872,-11.58605 5.174,-14.96063 9.6732,-19.2351 6.0738,-5.73678 21.7085,-14.39819 21.7085,-35.20809 0,-3.71204 -0.3375,-7.87402 -0.8999,-12.036 0.3374,-1.46231 0.5624,-3.48706 0.5624,-6.4117 0,-8.886386 -5.174,-15.073113 -8.8859,-17.997751 -0.4498,-0.33746 -1.1247,-0.56243 -1.7996,-0.56243 -0.4499,0 -1.9121,0.33746 -1.9121,0.89989 0,0.33746 0.6748,0.787399 1.1247,1.237349 3.9369,4.161978 6.8613,7.986496 6.8613,15.523052 0,1.46232 -0.1125,2.92464 -0.45,4.27447 l -0.2249,0.33746 c -2.362,9.44881 -18.784,19.46007 -27.4449,21.37233 -0.7873,0.33746 -1.6872,2.81214 -1.6872,3.03711 v 44.76941 m 4.1618,-28.12149 c 0.1125,-0.56243 0.225,-1.01236 0.3374,-1.34982 0.6749,-2.81215 1.6872,-6.97413 8.2109,-12.036 6.5238,-5.06187 14.2849,-11.36108 17.3219,-16.76041 -0.225,8.66142 -2.2497,14.06074 -5.2866,17.88527 -6.8612,8.43645 -15.1847,10.79865 -20.5836,12.26096" style="stroke-width:1.12483"/>
	<path d="m 1214.0575,124.97187 c 0,0.78741 0.6748,1.46232 1.4622,1.46232 0.5624,0 1.2373,-0.44994 1.3498,-0.89989 0,-0.11248 1.0122,-4.04949 1.1247,-4.38695 0.1125,-0.44994 1.1249,-4.7244 5.174,-11.36108 4.3866,-7.31159 11.1354,-12.59842 16.7594,-20.47244 5.6239,-7.87401 8.8858,-15.298081 8.8858,-25.196845 0,-10.236225 -2.2495,-18.78515 -8.3235,-29.696294 -0.3373,-0.787399 -1.0123,-1.237339 -1.6872,-1.237339 -0.2249,0 -0.4498,0 -0.5623,0.11248 -0.5624,0.22498 -0.7874,0.674919 -0.7874,1.349839 0,0.33745 0.1125,0.7874 0.3374,1.349829 4.4992,10.461194 6.2989,16.422941 6.2989,24.521937 0,9.336325 -3.2619,14.173223 -5.2866,17.660293 -7.3111,12.48593 -19.1213,18.56018 -23.8454,20.13498 -0.7873,0.22497 -0.8998,0.89989 -0.8998,1.23735 v 25.42181" style="stroke-width:1.12483"/>
	<path d="m 213.97348,26.658917 c 0,3.149609 2.47454,5.624297 5.62395,5.624297 3.14942,0 5.62395,-2.474688 5.62395,-5.624297 0,-3.149608 -2.47453,-5.624297 -5.62395,-5.624297 -3.14941,0 -5.62395,2.474689 -5.62395,5.624297" style="stroke-width:1.12483"/>
	<path d="m 539.28804,82.90189 c 0,3.1496 2.47454,5.62429 5.62395,5.62429 3.14941,0 5.62395,-2.47469 5.62395,-5.62429 0,-3.14961 -2.47454,-5.6243 -5.62395,-5.6243 -3.14941,0 -5.62395,2.47469 -5.62395,5.6243" style="stroke-width:1.12483"/>
	<path d="m 864.60557,54.779906 c 0,3.149608 2.47454,5.624297 5.62395,5.624297 3.1494,0 5.62395,-2.474689 5.62395,-5.624297 0,-3.149608 -2.47455,-5.624297 -5.62395,-5.624297 -3.14941,0 -5.62395,2.474689 -5.62395,5.624297" style="stroke-width:1.12483"/>
</svg>
