<?xml version="1.0" encoding="utf-8"?>
<svg xmlns="http://www.w3.org/2000/svg" version="1.2" viewBox="0 0 1500 250">
	<title>A short musical phrase of eight notes.</title>
	<path class="" d="M -98,-132 H 1602.79 V 293.197 H -98 V -132" fill="#ffffff" fill-rule="evenodd"/>
	<polyline class="StaffLines" fill="none" points="43.732,66.42500000000001 1461.06,66.42500000000001" stroke="#000000" stroke-linejoin="bevel" stroke-width="3.12"/>
	<polyline class="StaffLines" fill="none" points="43.732,94.77199999999999 1461.06,94.77199999999999" stroke="#000000" stroke-linejoin="bevel" stroke-width="3.12"/>
	<polyline class="StaffLines" fill="none" points="43.732,123.118 1461.06,123.118" stroke="#000000" stroke-linejoin="bevel" stroke-width="3.12"/>
	<polyline class="StaffLines" fill="none" points="43.732,151.46499999999997 1461.06,151.46499999999997" stroke="#000000" stroke-linejoin="bevel" stroke-width="3.12"/>
	<polyline class="StaffLines" fill="none" points="43.732,179.81099999999998 1461.06,179.81099999999998" stroke="#000000" stroke-linejoin="bevel" stroke-width="3.12"/>
	<polyline class="BarLine" fill="none" points="1458.5,64.86600000000001 1458.5,181.37" stroke="#000000" stroke-linejoin="bevel" stroke-width="5.1"/>
	<polyline class="Stem" fill="none" points="209.834,57.01400000000001 209.834,151.46499999999997" stroke="#000000" stroke-linejoin="bevel" stroke-width="2.83"/>
	<polyline class="Stem" fill="none" points="424.749,85.36099999999999 424.749,179.69799999999998" stroke="#000000" stroke-linejoin="bevel" stroke-width="2.83"/>
	<polyline class="Stem" fill="none" points="537.772,113.707 537.772,201.07100000000003" stroke="#000000" stroke-linejoin="bevel" stroke-width="2.83"/>
	<polyline class="Stem" fill="none" points="752.687,99.53399999999999 752.687,193.87099999999998" stroke="#000000" stroke-linejoin="bevel" stroke-width="2.83"/>
	<polyline class="Stem" fill="none" points="865.71,85.36099999999999 865.71,179.81099999999998" stroke="#000000" stroke-linejoin="bevel" stroke-width="2.83"/>
	<polyline class="Stem" fill="none" points="1080.63,99.53399999999999 1080.63,193.87099999999998" stroke="#000000" stroke-linejoin="bevel" stroke-width="2.83"/>
	<polyline class="Stem" fill="none" points="1193.65,85.36099999999999 1193.65,180.83100000000002" stroke="#000000" stroke-linejoin="bevel" stroke-width="2.83"/>
	<polyline class="Stem" fill="none" points="1269.0,57.01400000000001 1269.0,151.351" stroke="#000000" stroke-linejoin="bevel" stroke-width="2.83"/>
	<path class="Note" d="m 208.416,57.01421 c 0,4.8756 3.51497,10.31813 12.69923,10.31813 11.79215,0 24.15122,-9.63781 24.15122,-19.61578 0,-6.68977 -5.6693,-10.43151 -12.69923,-10.43151 -10.99844,0 -24.15122,9.29765 -24.15122,19.72916" style="stroke-width:1.13386"/>
	<path class="Note" d="m 423.331,85.36021 c 0,4.8756 3.51497,10.31813 12.69923,10.31813 11.79215,0 24.15122,-9.63781 24.15122,-19.61578 0,-6.68977 -5.6693,-10.43151 -12.69923,-10.43151 -10.99844,0 -24.15122,9.29765 -24.15122,19.72916" style="stroke-width:1.13386"/>
	<path class="Note" d="m 536.355,113.70721 c 0,4.8756 3.51497,10.31813 12.69923,10.31813 11.79215,0 24.15122,-9.63781 24.15122,-19.61578 0,-6.68977 -5.6693,-10.43151 -12.69923,-10.43151 -10.99844,0 -24.15122,9.29765 -24.15122,19.72916" style="stroke-width:1.13386"/>
	<path class="Note" d="m 751.27,99.53421 c 0,4.8756 3.51497,10.31813 12.69923,10.31813 11.79215,0 24.15122,-9.63781 24.15122,-19.61578 0,-6.68977 -5.6693,-10.43151 -12.69923,-10.43151 -10.99844,0 -24.15122,9.29765 -24.15122,19.72916" style="stroke-width:1.13386"/>
	<path class="Note" d="m 864.293,85.36021 c 0,4.8756 3.51497,10.31813 12.69923,10.31813 11.79215,0 24.15122,-9.63781 24.15122,-19.61578 0,-6.68977 -5.6693,-10.43151 -12.69923,-10.43151 -10.99844,0 -24.15122,9.29765 -24.15122,19.72916" style="stroke-width:1.13386"/>
	<path class="Note" d="m 1079.21,99.53421 c 0,4.8756 3.515,10.31813 12.6992,10.31813 11.7922,0 24.1513,-9.63781 24.1513,-19.61578 0,-6.68977 -5.6693,-10.43151 -12.6993,-10.43151 -10.9984,0 -24.1512,9.29765 -24.1512,19.72916" style="stroke-width:1.13386"/>
	<path class="Note" d="m 1192.23,85.36021 c 0,4.8756 3.515,10.31813 12.6992,10.31813 11.7922,0 24.1513,-9.63781 24.1513,-19.61578 0,-6.68977 -5.6693,-10.43151 -12.6993,-10.43151 -10.9984,0 -24.1512,9.29765 -24.1512,19.72916" style="stroke-width:1.13386"/>
	<path class="Note" d="m 1267.58,57.01421 c 0,4.8756 3.515,10.31813 12.6992,10.31813 11.7922,0 24.1512,-9.63781 24.1512,-19.61578 0,-6.68977 -5.6693,-10.43151 -12.6992,-10.43151 -10.9984,0 -24.1512,9.29765 -24.1512,19.72916" style="stroke-width:1.13386"/>
	<path class="Clef" d="m 78.93848,209.63202 c 0,7.48347 5.6693,17.34806 20.97641,17.34806 5.32914,0 9.97797,-1.36064 14.05986,-3.85513 6.12285,-4.30867 7.71025,-11.79214 7.71025,-18.93546 0,-4.42205 -0.68032,-9.52442 -1.81418,-15.98743 -0.34015,-2.26772 -1.02047,-5.6693 -1.70079,-10.09135 11.11183,-3.62835 19.38901,-15.19372 19.38901,-26.87248 0,-17.12129 -12.1323,-28.68666 -28.68666,-28.68666 -1.13386,-6.80316 -2.26772,-13.49293 -3.17481,-19.84255 11.90553,-12.58585 20.18271,-26.7591 20.18271,-44.78747 0,-10.31813 -3.17481,-18.70869 -4.98898,-22.79059 -2.72127,-5.78268 -6.00946,-9.75119 -8.05041,-9.75119 -0.7937,0 -4.30867,1.36063 -8.0504,5.78268 -7.25671,8.61734 -9.29766,23.13075 -9.29766,32.65517 0,6.12285 0.56693,11.67876 2.4945,24.37799 -0.11339,0.11339 -6.00946,6.12285 -8.39057,8.05041 -10.31812,9.52442 -24.60476,23.35751 -24.60476,46.03471 0,21.20319 18.48192,37.87093 39.57171,37.87093 3.2882,0 6.34962,-0.34016 8.9575,-0.7937 2.15433,10.88505 3.51496,18.82207 3.51496,24.83153 0,11.79214 -6.12284,18.02837 -17.57483,18.02837 -2.72126,0 -5.10237,-0.56693 -5.32914,-0.56693 -0.11338,-0.11338 -0.34016,-0.22677 -0.34016,-0.34015 0,-0.22678 0.22678,-0.34016 0.56693,-0.34016 5.32915,-0.90709 10.65829,-5.44253 10.65829,-12.69923 0,-6.12285 -4.64883,-12.58585 -13.15278,-12.58585 -7.93702,0 -12.926,6.463 -12.926,13.94648 M 102.63615,58.26171 c 1.02048,-4.53544 6.23623,-16.44097 12.1323,-16.44097 1.70079,0 4.42206,5.44253 4.42206,13.37955 0,11.79214 -8.73072,20.63625 -16.55436,28.3465 -0.68031,-4.53544 -1.24724,-8.9575 -1.24724,-13.71971 0,-4.19528 0.34015,-8.05041 1.24724,-11.56537 m 9.97797,116.56081 c -2.26772,0.45354 -4.42205,0.68031 -6.57639,0.68031 -16.2142,0 -30.04729,-11.3386 -30.04729,-28.45988 0,-13.8331 9.7512,-26.19217 19.72917,-34.80951 1.92756,-1.70079 3.74173,-3.28819 5.44252,-4.98898 1.02048,6.12284 1.81418,11.45199 2.60788,16.10081 -10.31812,3.06142 -17.34806,13.94648 -17.34806,24.60476 0,7.93702 6.23623,18.82208 15.30711,18.82208 0.90709,0 1.92757,-0.45354 1.92757,-1.47402 0,-1.02047 -1.13386,-1.5874 -2.4945,-2.49449 -4.42205,-2.72126 -6.91654,-5.6693 -6.91654,-11.22521 0,-6.91655 5.21575,-12.47246 11.79214,-14.05987 l 6.57639,37.304 m 16.10081,-20.97641 c 0,8.0504 -3.28819,16.32758 -11.3386,19.61577 -2.3811,-13.60632 -5.44253,-31.63469 -6.23623,-36.62367 10.20474,0 17.57483,6.91654 17.57483,17.0079" style="stroke-width:1.13386"/>
	<path class="Hook" d="m 423.331,179.69761 c 0,0.79371 0.68032,1.47402 1.47402,1.47402 0.56693,0 1.24724,-0.45354 1.36063,-0.90709 0,-0.11338 1.02047,-4.08189 1.13386,-4.42205 0.11339,-0.45354 1.13386,-4.76221 5.21576,-11.45199 4.42205,-7.37009 11.22521,-12.69923 16.89451,-20.63625 5.6693,-7.93702 8.95749,-15.42049 8.95749,-25.39846 0,-10.31813 -2.26772,-18.93546 -8.39056,-29.93391 -0.34016,-0.7937 -1.02047,-1.24724 -1.70079,-1.24724 -0.22677,0 -0.45354,0 -0.56693,0.11338 -0.56693,0.22678 -0.7937,0.68032 -0.7937,1.36064 0,0.34015 0.11338,0.7937 0.34016,1.36063 4.53544,10.5449 6.34961,16.55435 6.34961,24.71815 0,9.41103 -3.28819,14.28663 -5.32914,17.8016 -7.37009,12.58584 -19.27562,18.70869 -24.03783,20.29609 -0.7937,0.22677 -0.90709,0.90709 -0.90709,1.24725 v 25.62523" style="stroke-width:1.13386"/>
	<path class="Hook" d="m 751.27,193.87061 c 0,0.79371 0.68032,1.47402 1.47402,1.47402 0.56693,0 1.24724,-0.45354 1.36063,-0.90709 0,-0.11338 1.02047,-4.08189 1.13386,-4.42205 0.11339,-0.45354 1.13386,-4.76221 5.21576,-11.45199 4.42205,-7.37009 11.22521,-12.69923 16.89451,-20.63625 5.6693,-7.93702 8.95749,-15.42049 8.95749,-25.39846 0,-10.31813 -2.26772,-18.93546 -8.39056,-29.93391 -0.34016,-0.7937 -1.02047,-1.24724 -1.70079,-1.24724 -0.22677,0 -0.45354,0 -0.56693,0.11338 -0.56693,0.22678 -0.7937,0.68032 -0.7937,1.36064 0,0.34015 0.11338,0.7937 0.34016,1.36063 4.53544,10.5449 6.34961,16.55435 6.34961,24.71815 0,9.41103 -3.28819,14.28663 -5.32914,17.8016 -7.37009,12.58584 -19.27562,18.70869 -24.03783,20.29609 -0.7937,0.22677 -0.90709,0.90709 -0.90709,1.24725 v 25.62523" style="stroke-width:1.13386"/>
	<path class="Hook" d="m 1079.21,193.87061 c 0,0.79371 0.6803,1.47402 1.474,1.47402 0.5669,0 1.2473,-0.45354 1.3607,-0.90709 0,-0.11338 1.0204,-4.08189 1.1338,-4.42205 0.1134,-0.45354 1.1339,-4.76221 5.2158,-11.45199 4.422,-7.37009 11.2252,-12.69923 16.8945,-20.63625 5.6693,-7.93702 8.9575,-15.42049 8.9575,-25.39846 0,-10.31813 -2.2677,-18.93546 -8.3906,-29.93391 -0.3401,-0.7937 -1.0205,-1.24724 -1.7008,-1.24724 -0.2268,0 -0.4535,0 -0.5669,0.11338 -0.5669,0.22678 -0.7937,0.68032 -0.7937,1.36064 0,0.34015 0.1134,0.7937 0.3401,1.36063 4.5355,10.5449 6.3497,16.55435 6.3497,24.71815 0,9.41103 -3.2882,14.28663 -5.3292,17.8016 -7.3701,12.58584 -19.2756,18.70869 -24.0378,20.29609 -0.7937,0.22677 -0.9071,0.90709 -0.9071,1.24725 v 25.62523" style="stroke-width:1.13386"/>
	<path class="Hook" d="m 1192.23,180.94486 c 0,0.90709 0.7937,1.81418 1.7008,1.81418 0.9071,0 1.474,-0.90709 1.7008,-1.81418 1.7008,-11.67876 5.2157,-15.08034 9.7512,-19.38901 6.1228,-5.78268 21.8835,-14.5134 21.8835,-35.48981 0,-3.74174 -0.3402,-7.93702 -0.9071,-12.13231 0.3401,-1.47401 0.5669,-3.51496 0.5669,-6.463 0,-8.95749 -5.2157,-15.19372 -8.9575,-18.14176 -0.4535,-0.34016 -1.1338,-0.56693 -1.8142,-0.56693 -0.4535,0 -1.9275,0.34016 -1.9275,0.90709 0,0.34016 0.6803,0.7937 1.1338,1.24725 3.9686,4.19528 6.9166,8.0504 6.9166,15.64726 0,1.47402 -0.1134,2.94804 -0.4536,4.30867 l -0.2267,0.34016 c -2.3811,9.52442 -18.9355,19.61578 -27.6662,21.54334 -0.7937,0.34016 -1.7008,2.83465 -1.7008,3.06142 v 45.12763 m 4.1953,-28.3465 c 0.1134,-0.56693 0.2268,-1.02047 0.3401,-1.36063 0.6804,-2.83465 1.7008,-7.02993 8.2772,-12.1323 6.5764,-5.10237 14.4,-11.45199 17.4615,-16.89452 -0.2268,8.73072 -2.2678,14.17325 -5.3292,18.02838 -6.9165,8.50395 -15.3071,10.88505 -20.7496,12.35907" style="stroke-width:1.13386"/>
	<path class="Hook" d="m 1267.58,151.35161 c 0,0.79371 0.6803,1.47402 1.474,1.47402 0.5669,0 1.2473,-0.45354 1.3607,-0.90709 0,-0.11338 1.0204,-4.08189 1.1338,-4.42205 0.1134,-0.45354 1.1339,-4.76221 5.2158,-11.45199 4.422,-7.37009 11.2252,-12.69923 16.8945,-20.63625 5.6693,-7.93702 8.9575,-15.42049 8.9575,-25.39846 0,-10.31813 -2.2677,-18.93546 -8.3906,-29.93391 -0.3401,-0.7937 -1.0205,-1.24724 -1.7008,-1.24724 -0.2268,0 -0.4535,0 -0.5669,0.11338 -0.5669,0.22678 -0.7937,0.68032 -0.7937,1.36064 0,0.34015 0.1134,0.7937 0.3401,1.36063 4.5355,10.5449 6.3497,16.55435 6.3497,24.71815 0,9.41103 -3.2882,14.28663 -5.3292,17.8016 -7.3701,12.58584 -19.2756,18.70869 -24.0378,20.29609 -0.7937,0.22677 -0.9071,0.90709 -0.9071,1.24725 v 25.62523" style="stroke-width:1.13386"/>
	<path class="NoteDot" d="m 259.431,52.252 c 0,3.17481 2.49449,5.6693 5.6693,5.6693 3.17481,0 5.6693,-2.49449 5.6693,-5.6693 0,-3.17481 -2.49449,-5.6693 -5.6693,-5.6693 -3.17481,0 -5.6693,2.49449 -5.6693,5.6693" style="stroke-width:1.13386"/>
	<path class="NoteDot" d="m 587.369,108.945 c 0,3.17481 2.49449,5.6693 5.6693,5.6693 3.17481,0 5.6693,-2.49449 5.6693,-5.6693 0,-3.17481 -2.49449,-5.6693 -5.6693,-5.6693 -3.17481,0 -5.6693,2.49449 -5.6693,5.6693" style="stroke-width:1.13386"/>
	<path class="NoteDot" d="m 915.31,80.598 c 0,3.17481 2.4945,5.6693 5.6693,5.6693 3.1748,0 5.6693,-2.49449 5.6693,-5.6693 0,-3.17481 -2.4945,-5.6693 -5.6693,-5.6693 -3.1748,0 -5.6693,2.49449 -5.6693,5.6693" style="stroke-width:1.13386"/>
</svg>
